<svg xmlns="http://www.w3.org/2000/svg" width="669.896" height="386.904"><defs><style>.b{fill:#fff}.d{fill:none;stroke:#000;stroke-width:2px;stroke-miterlimit:10}</style></defs><g transform="translate(-350 -1271)"><rect width="597" height="336" rx="30" transform="translate(350 1271)" style="fill:#101010"/><path class="b" d="M752.397 1439.36a11.972 11.972 0 0 0-3.725-8.723 9.966 9.966 0 0 1-2.9-8.978 12.783 12.783 0 0 0-.093-4.706 11.475 11.475 0 0 0-2.023-4.52 12.071 12.071 0 0 0-8.126-4.856 9.949 9.949 0 0 1-7.614-5.54 12.07 12.07 0 0 0-16.122-5.609 9.86 9.86 0 0 0-.469.241 10.87 10.87 0 0 0 1.938 19.963 23.674 23.674 0 0 1 0 45.439 10.789 10.789 0 0 0-7.667 10.378 10.865 10.865 0 0 0 5.75 9.6 12.069 12.069 0 0 0 16.337-4.937c.077-.148.154-.3.227-.445a9.95 9.95 0 0 1 7.634-5.54 12.075 12.075 0 0 0 10.306-13.613 13.043 13.043 0 0 0-.077-.488 9.964 9.964 0 0 1 2.928-8.962 11.978 11.978 0 0 0 3.696-8.704zm-30.9 0a12.885 12.885 0 1 0-12.885 12.887 12.885 12.885 0 0 0 12.885-12.887zM587.526 1433.676a10 10 0 0 0 7.468-3.14 10.829 10.829 0 0 0-.034-15.022 10.382 10.382 0 0 0-14.9 0 10.814 10.814 0 0 0-.02 15.024 10.071 10.071 0 0 0 7.486 3.138zm-3.609-14.451a4.741 4.741 0 0 1 3.591-1.611 4.8 4.8 0 0 1 3.614 1.617 5.4 5.4 0 0 1 1.562 3.885 5.238 5.238 0 0 1-1.524 3.812 5.094 5.094 0 0 1-7.313.022 5.284 5.284 0 0 1-1.483-3.818 5.453 5.453 0 0 1 1.553-3.907zM610.98 1433.677a9.1 9.1 0 0 0 5.338-1.815v1.23h5.253v-26.913h-5.253v7.695a9.253 9.253 0 0 0-5.176-1.509 10.143 10.143 0 0 0-7.493 3.13 10.365 10.365 0 0 0-3.065 7.509 10.493 10.493 0 0 0 3.021 7.517 9.914 9.914 0 0 0 7.375 3.156zm-3.543-14.486a5.258 5.258 0 0 1 7.509-.059 5.514 5.514 0 0 1 1.5 3.984 5.374 5.374 0 0 1-5.257 5.435 4.906 4.906 0 0 1-3.709-1.633 5.57 5.57 0 0 1-.04-7.727zM629.257 1432.483a7.931 7.931 0 0 0 9.065-.486v1.234h5.321v-20.278h-5.463v11.452a3.612 3.612 0 0 1-7.224 0v-11.452h-5.423v10.38a14.5 14.5 0 0 0 .91 5.848 7.23 7.23 0 0 0 2.814 3.302zM544.675 1472.524h5.416v-11.982h9.323v-5.383h-9.323v-4.16h9.323v-5.387h-14.739zM577.898 1452.726a9.247 9.247 0 0 0-5.174-1.513 10.155 10.155 0 0 0-7.495 3.13 10.358 10.358 0 0 0-3.065 7.5 10.5 10.5 0 0 0 3.041 7.517 9.917 9.917 0 0 0 7.373 3.169 9.576 9.576 0 0 0 5.319-1.7v1.123h5.255v-20.285h-5.255zm-1.428 13.118a5 5 0 0 1-3.7 1.556 4.928 4.928 0 0 1-3.713-1.617 5.569 5.569 0 0 1-.022-7.737 4.877 4.877 0 0 1 3.719-1.609 4.978 4.978 0 0 1 3.737 1.558 5.367 5.367 0 0 1 1.536 3.94 5.237 5.237 0 0 1-1.558 3.908zM602.221 1464.777a6.145 6.145 0 0 1-5.026 2.622 5.243 5.243 0 0 1-4.008-1.647 5.488 5.488 0 0 1-1.574-3.966 5.083 5.083 0 0 1 1.57-3.816 5.47 5.47 0 0 1 4.012-1.566 5.858 5.858 0 0 1 4.969 2.562l.706.951 4.073-2.661-.646-1.1a9.556 9.556 0 0 0-3.806-3.658 10.9 10.9 0 0 0-5.2-1.285 10.362 10.362 0 0 0-7.786 3.156 10.589 10.589 0 0 0-3.033 7.582 10.34 10.34 0 0 0 3.025 7.511 10.122 10.122 0 0 0 7.48 3.063 11.784 11.784 0 0 0 5.257-1.2 10.115 10.115 0 0 0 4.029-3.553l.714-1.085-4.014-2.855zM634.293 1451.212a10.052 10.052 0 0 0-7.466 3.152 10.813 10.813 0 0 0-.02 15.024 10.477 10.477 0 0 0 14.953 0 10.827 10.827 0 0 0-.034-15.02 10.007 10.007 0 0 0-7.433-3.156zm3.634 14.564a5.094 5.094 0 0 1-7.313.026 5.3 5.3 0 0 1-1.481-3.822 5.44 5.44 0 0 1 1.55-3.9 4.74 4.74 0 0 1 3.594-1.609 4.8 4.8 0 0 1 3.612 1.611 5.411 5.411 0 0 1 1.562 3.885 5.229 5.229 0 0 1-1.524 3.809zM569.958 1421.18a2.556 2.556 0 0 1 2.552-2.556h3.086v-5.261h-3.086a7.825 7.825 0 0 0-7.816 7.816v12.5h5.265zM648.175 1460.027v12.5h5.263v-12.5a2.556 2.556 0 0 1 2.554-2.554h3.086v-5.263h-3.086a7.825 7.825 0 0 0-7.817 7.817zM672.228 1462.64l-4.927-10.976h-5.655l7.776 17.521-1.066 2.379a3.636 3.636 0 0 1-3.268 2.052h-2.58v5.162h2.58a8.326 8.326 0 0 0 7.922-4.937l8.529-19.445.081-.3 1.058-2.424h-5.692zM680.816 1428.414a2.555 2.555 0 0 1-2.554-2.554v-3.43h.028v-4.64h3.5v-4.959h-3.5v-6.639h-5.317v6.639h-3.045v4.959h3.045v5.34h.024v2.732a7.827 7.827 0 0 0 7.818 7.816h1.862v-5.263zM617.939 1464.708v-3.43h.028v-4.64h3.5v-4.963h-3.5v-6.432h-5.317v6.432h-3.045v4.961h3.045v5.338h.026v2.736a7.825 7.825 0 0 0 7.816 7.816h1.861v-5.261h-1.861a2.558 2.558 0 0 1-2.553-2.557zM657.835 1433.676a11.79 11.79 0 0 0 5.257-1.2 10.109 10.109 0 0 0 4.027-3.553l.714-1.084-4.014-2.855-.739.941a6.145 6.145 0 0 1-5.026 2.622 5.246 5.246 0 0 1-4.008-1.647 5.491 5.491 0 0 1-1.574-3.966 5.07 5.07 0 0 1 1.572-3.816 5.465 5.465 0 0 1 4.01-1.566 5.862 5.862 0 0 1 4.971 2.562l.7.949 4.073-2.659-.645-1.1a9.548 9.548 0 0 0-3.806-3.66 10.918 10.918 0 0 0-5.2-1.283 10.367 10.367 0 0 0-7.788 3.157 10.593 10.593 0 0 0-3.033 7.58 10.356 10.356 0 0 0 3.025 7.513 10.126 10.126 0 0 0 7.484 3.065zM554.538 1406.438h-9.834v27.194h5.342v-11.776h4.492a7.709 7.709 0 1 0 0-15.418zm-.121 10.238h-4.371v-5h4.371a2.5 2.5 0 0 1 0 5z"/></g><g transform="translate(634.181 222.9)"><path d="M0 0h35.715v35.715H0z"/><circle class="b" cx="7.172" cy="7.172" transform="translate(10.685 10.685)" r="7.172"/></g><path d="M-15.7 0h41.023" transform="translate(612.226 240.756)" style="fill:none;stroke:#000;stroke-width:2px"/><path class="d" d="M358.961 325.535c0 32.72-37.769 59.223-84.4 59.223s-84.394-26.503-84.394-59.223"/><path class="d" d="M249.85 326.681c0 32.72-19.817 59.223-44.3 59.223s-44.293-26.503-44.293-59.223"/><path class="b" d="M547.5 304a17.5 17.5 0 1 1 12.377-5.127A17.383 17.383 0 0 1 547.5 304zm-3.15-25a.325.325 0 0 0-.158.039.358.358 0 0 0-.189.313v14.068a.359.359 0 0 0 .188.314.406.406 0 0 0 .164.039.378.378 0 0 0 .2-.064l10.2-7.031a.349.349 0 0 0 .154-.289.338.338 0 0 0-.154-.293l-10.2-7.033a.379.379 0 0 0-.207-.063z"/></svg>