<svg data-name="Group 368" xmlns="http://www.w3.org/2000/svg" width="164.73" height="69.995"><path d="M164.731 35.005a9.494 9.494 0 0 0-2.954-6.917 7.9 7.9 0 0 1-2.3-7.12 10.138 10.138 0 0 0-.074-3.732 9.1 9.1 0 0 0-1.6-3.585 9.572 9.572 0 0 0-6.444-3.851 7.889 7.889 0 0 1-6.039-4.394A9.572 9.572 0 0 0 132.534.958a8.69 8.69 0 0 0-.372.191 8.62 8.62 0 0 0 1.537 15.831 18.774 18.774 0 0 1 0 36.035 8.556 8.556 0 0 0-6.08 8.23 8.616 8.616 0 0 0 4.56 7.614 9.571 9.571 0 0 0 12.956-3.915c.061-.117.122-.234.18-.353a7.891 7.891 0 0 1 6.054-4.393 9.576 9.576 0 0 0 8.172-10.8c-.018-.13-.038-.258-.061-.387a7.9 7.9 0 0 1 2.322-7.107 9.5 9.5 0 0 0 2.929-6.899zm-24.507 0a10.218 10.218 0 1 0-10.218 10.22 10.218 10.218 0 0 0 10.218-10.22z"/><g data-name="Group 298"><path data-name="Path 415" d="M33.981 30.496a7.934 7.934 0 0 0 5.923-2.49 8.588 8.588 0 0 0-.027-11.913 8.233 8.233 0 0 0-11.815 0 8.575 8.575 0 0 0-.016 11.914 7.987 7.987 0 0 0 5.935 2.489zm-2.861-11.46a3.76 3.76 0 0 1 2.848-1.277 3.8 3.8 0 0 1 2.866 1.282 4.286 4.286 0 0 1 1.239 3.081 4.154 4.154 0 0 1-1.208 3.023 4.04 4.04 0 0 1-5.8.018 4.19 4.19 0 0 1-1.176-3.028 4.324 4.324 0 0 1 1.231-3.099z"/><path data-name="Path 416" d="M52.582 30.497a7.214 7.214 0 0 0 4.233-1.439v.976h4.166V8.69h-4.166v6.1a7.338 7.338 0 0 0-4.1-1.2 8.044 8.044 0 0 0-5.942 2.482 8.22 8.22 0 0 0-2.431 5.955 8.322 8.322 0 0 0 2.4 5.961 7.862 7.862 0 0 0 5.84 2.509zM49.776 19.01a4.169 4.169 0 0 1 5.955-.047 4.373 4.373 0 0 1 1.187 3.16 4.261 4.261 0 0 1-4.169 4.31 3.89 3.89 0 0 1-2.941-1.295 4.417 4.417 0 0 1-.032-6.128z"/><path data-name="Path 417" d="M67.076 29.546a6.289 6.289 0 0 0 7.189-.385v.979h4.22V14.062h-4.332v9.082a2.864 2.864 0 0 1-5.728 0v-9.082h-4.3v8.23a11.5 11.5 0 0 0 .722 4.637 5.734 5.734 0 0 0 2.229 2.617z"/><path data-name="Path 418" d="M0 61.304h4.3v-9.5h7.385v-4.268H4.292v-3.3h7.393v-4.272H0z"/><path data-name="Path 419" d="M26.347 45.602a7.333 7.333 0 0 0-4.1-1.2 8.053 8.053 0 0 0-5.943 2.482 8.214 8.214 0 0 0-2.431 5.945 8.325 8.325 0 0 0 2.412 5.961 7.864 7.864 0 0 0 5.847 2.513 7.6 7.6 0 0 0 4.219-1.351v.891h4.16v-16.08h-4.167zm-1.133 10.4a3.965 3.965 0 0 1-2.933 1.234 3.908 3.908 0 0 1-2.944-1.282 4.417 4.417 0 0 1-.018-6.136 3.868 3.868 0 0 1 2.949-1.276 3.948 3.948 0 0 1 2.964 1.236 4.256 4.256 0 0 1 1.218 3.124 4.153 4.153 0 0 1-1.239 3.103z"/><path data-name="Path 420" d="M45.636 55.159a4.873 4.873 0 0 1-3.986 2.08 4.157 4.157 0 0 1-3.179-1.306 4.352 4.352 0 0 1-1.248-3.145 4.03 4.03 0 0 1 1.245-3.026 4.338 4.338 0 0 1 3.182-1.238 4.646 4.646 0 0 1 3.941 2.031l.56.754 3.23-2.11-.512-.873a7.579 7.579 0 0 0-3.018-2.9 8.644 8.644 0 0 0-4.127-1.019 8.218 8.218 0 0 0-6.174 2.5 8.4 8.4 0 0 0-2.405 6.013 8.2 8.2 0 0 0 2.4 5.956 8.027 8.027 0 0 0 5.932 2.43 9.345 9.345 0 0 0 4.169-.948 8.021 8.021 0 0 0 3.195-2.818l.566-.86-3.184-2.264z"/><path data-name="Path 421" d="M71.069 44.402a7.972 7.972 0 0 0-5.921 2.5 8.575 8.575 0 0 0-.016 11.914 8.308 8.308 0 0 0 11.858 0 8.586 8.586 0 0 0-.027-11.911 7.936 7.936 0 0 0-5.894-2.503zm2.882 11.55a4.04 4.04 0 0 1-5.8.021 4.2 4.2 0 0 1-1.175-3.031 4.314 4.314 0 0 1 1.229-3.1 3.759 3.759 0 0 1 2.85-1.276 3.805 3.805 0 0 1 2.864 1.277 4.291 4.291 0 0 1 1.239 3.081 4.146 4.146 0 0 1-1.207 3.028z"/><path data-name="Path 422" d="M20.05 20.587a2.027 2.027 0 0 1 2.023-2.027h2.447v-4.172h-2.447a6.206 6.206 0 0 0-6.2 6.2v9.91h4.175z"/><path data-name="Path 423" d="M82.078 51.394v9.91h4.174v-9.91a2.027 2.027 0 0 1 2.025-2.025h2.447v-4.174h-2.447a6.206 6.206 0 0 0-6.199 6.199z"/><path data-name="Path 424" d="m101.154 53.46-3.907-8.7h-4.485l6.166 13.9-.846 1.884a2.884 2.884 0 0 1-2.591 1.627h-2.046v4.089h2.046a6.6 6.6 0 0 0 6.282-3.915l6.763-15.42.064-.241.839-1.922h-4.514z"/><path data-name="Path 425" d="M107.964 26.323a2.026 2.026 0 0 1-2.025-2.025v-2.72h.022v-3.679h2.773v-3.933h-2.772V8.701h-4.217v5.265H99.33v3.933h2.415v4.235h.019v2.171a6.207 6.207 0 0 0 6.2 6.2h1.476v-4.174z"/><path data-name="Path 426" d="M58.1 55.105v-2.72h.023v-3.679h2.774v-3.935h-2.774v-5.1h-4.217v5.1h-2.42v3.935h2.415v4.235h.021v2.169a6.206 6.206 0 0 0 6.2 6.2h1.476v-4.172h-1.476a2.028 2.028 0 0 1-2.022-2.033z"/><path data-name="Path 427" d="M89.739 30.496a9.349 9.349 0 0 0 4.169-.948 8.017 8.017 0 0 0 3.193-2.818l.566-.86-3.184-2.264-.586.746a4.873 4.873 0 0 1-3.986 2.08 4.16 4.16 0 0 1-3.179-1.306 4.354 4.354 0 0 1-1.248-3.145 4.021 4.021 0 0 1 1.247-3.026 4.334 4.334 0 0 1 3.18-1.242 4.648 4.648 0 0 1 3.947 2.031l.558.753 3.23-2.108-.512-.873a7.573 7.573 0 0 0-3.018-2.9 8.659 8.659 0 0 0-4.125-1.017 8.221 8.221 0 0 0-6.176 2.5 8.4 8.4 0 0 0-2.405 6.011 8.213 8.213 0 0 0 2.4 5.958 8.03 8.03 0 0 0 5.929 2.428z"/><path data-name="Path 428" d="M7.821 8.895h-7.8v21.566h4.236v-9.339h3.562a6.114 6.114 0 1 0 0-12.227zm-.1 8.119H4.255v-3.963h3.466a1.982 1.982 0 0 1 0 3.963z"/></g></svg>