<svg xmlns="http://www.w3.org/2000/svg" width="122.372" height="51.997"><defs><style>.a{fill:#fff}</style></defs><path class="a" d="M122.372 26.004a7.053 7.053 0 0 0-2.194-5.139 5.871 5.871 0 0 1-1.708-5.289 7.53 7.53 0 0 0-.055-2.773 6.761 6.761 0 0 0-1.192-2.663 7.111 7.111 0 0 0-4.787-2.861 5.861 5.861 0 0 1-4.486-3.264 7.11 7.11 0 0 0-9.5-3.3 6.025 6.025 0 0 0-.277.142 6.4 6.4 0 0 0 1.142 11.76 13.947 13.947 0 0 1 0 26.769 6.356 6.356 0 0 0-4.517 6.114 6.4 6.4 0 0 0 3.388 5.656 7.11 7.11 0 0 0 9.624-2.909c.045-.087.091-.174.133-.262a5.862 5.862 0 0 1 4.5-3.264 7.114 7.114 0 0 0 6.075-8.027c-.013-.1-.029-.192-.045-.287a5.87 5.87 0 0 1 1.725-5.279 7.057 7.057 0 0 0 2.174-5.124zm-18.206 0a7.591 7.591 0 1 0-7.591 7.592 7.591 7.591 0 0 0 7.591-7.592zM25.243 22.655a5.894 5.894 0 0 0 4.4-1.85 6.38 6.38 0 0 0-.02-8.849 6.116 6.116 0 0 0-8.777 0 6.37 6.37 0 0 0-.012 8.851 5.933 5.933 0 0 0 4.409 1.848zm-2.125-8.513a2.793 2.793 0 0 1 2.116-.949 2.826 2.826 0 0 1 2.129.952 3.184 3.184 0 0 1 .92 2.289 3.086 3.086 0 0 1-.9 2.246 3 3 0 0 1-4.308.013 3.113 3.113 0 0 1-.874-2.249 3.212 3.212 0 0 1 .917-2.302zM39.062 22.655a5.359 5.359 0 0 0 3.145-1.069v.725h3.094V6.456h-3.094v4.533a5.451 5.451 0 0 0-3.049-.889 5.976 5.976 0 0 0-4.414 1.844 6.106 6.106 0 0 0-1.806 4.424 6.182 6.182 0 0 0 1.78 4.428 5.84 5.84 0 0 0 4.344 1.859zm-2.085-8.534a3.1 3.1 0 0 1 4.424-.035 3.248 3.248 0 0 1 .882 2.347 3.166 3.166 0 0 1-3.1 3.2 2.89 2.89 0 0 1-2.185-.962 3.281 3.281 0 0 1-.024-4.552zM49.829 21.95a4.672 4.672 0 0 0 5.34-.286v.727h3.135V10.447h-3.218v6.747a2.128 2.128 0 0 1-4.255 0v-6.747h-3.195v6.115a8.544 8.544 0 0 0 .536 3.445 4.259 4.259 0 0 0 1.657 1.943zM0 45.541h3.191v-7.059h5.494v-3.171H3.193v-2.454h5.492v-3.173H.002zM19.572 33.877a5.447 5.447 0 0 0-3.048-.892 5.982 5.982 0 0 0-4.415 1.844 6.1 6.1 0 0 0-1.806 4.416 6.184 6.184 0 0 0 1.792 4.428 5.842 5.842 0 0 0 4.344 1.867 5.642 5.642 0 0 0 3.134-1v.662h3.1V33.253h-3.1zm-.842 7.728a2.945 2.945 0 0 1-2.179.917 2.9 2.9 0 0 1-2.187-.952 3.281 3.281 0 0 1-.013-4.558 2.873 2.873 0 0 1 2.191-.948 2.933 2.933 0 0 1 2.2.918 3.162 3.162 0 0 1 .9 2.321 3.085 3.085 0 0 1-.911 2.304zM33.902 40.976a3.62 3.62 0 0 1-2.961 1.545 3.088 3.088 0 0 1-2.361-.97 3.233 3.233 0 0 1-.927-2.336 2.994 2.994 0 0 1 .925-2.248 3.222 3.222 0 0 1 2.364-.923 3.451 3.451 0 0 1 2.928 1.509l.416.56 2.4-1.568-.38-.648a5.63 5.63 0 0 0-2.242-2.155 6.421 6.421 0 0 0-3.066-.757 6.1 6.1 0 0 0-4.587 1.859 6.238 6.238 0 0 0-1.787 4.466 6.091 6.091 0 0 0 1.782 4.425 5.963 5.963 0 0 0 4.407 1.8 6.942 6.942 0 0 0 3.1-.7 5.959 5.959 0 0 0 2.373-2.093l.421-.639-2.365-1.682zM52.791 32.985a5.922 5.922 0 0 0-4.4 1.857 6.37 6.37 0 0 0-.012 8.851 6.172 6.172 0 0 0 8.809 0 6.378 6.378 0 0 0-.02-8.848 5.9 5.9 0 0 0-4.377-1.86zm2.141 8.58a3 3 0 0 1-4.308.016 3.119 3.119 0 0 1-.873-2.252 3.2 3.2 0 0 1 .913-2.3 2.792 2.792 0 0 1 2.117-.948 2.827 2.827 0 0 1 2.128.949 3.188 3.188 0 0 1 .92 2.289 3.08 3.08 0 0 1-.894 2.246zM14.895 15.294a1.506 1.506 0 0 1 1.5-1.505h1.818v-3.1h-1.818a4.61 4.61 0 0 0-4.6 4.6v7.362h3.1zM60.973 38.179v7.362h3.1v-7.362a1.506 1.506 0 0 1 1.5-1.5h1.818v-3.1h-1.818a4.61 4.61 0 0 0-4.6 4.6zM75.143 39.717l-2.9-6.464h-3.332l4.581 10.322-.628 1.4a2.142 2.142 0 0 1-1.925 1.209h-1.52v3.041h1.52a4.9 4.9 0 0 0 4.667-2.909l5.024-11.455.048-.179.623-1.428h-3.353zM80.202 19.555a1.505 1.505 0 0 1-1.5-1.5v-2.02h.017v-2.74h2.06v-2.922h-2.06V6.462h-3.133v3.911h-1.794v2.922h1.794v3.146h.014v1.613a4.611 4.611 0 0 0 4.606 4.6h1.1v-3.1zM43.161 40.941v-2.02h.017v-2.74h2.061v-2.923h-2.061v-3.789h-3.132v3.789h-1.8v2.923h1.8v3.145h.015v1.615a4.61 4.61 0 0 0 4.6 4.6h1.1v-3.1h-1.1a1.507 1.507 0 0 1-1.5-1.5zM66.664 22.655a6.946 6.946 0 0 0 3.1-.7 5.956 5.956 0 0 0 2.372-2.093l.421-.639-2.365-1.682-.435.554a3.62 3.62 0 0 1-2.961 1.545 3.09 3.09 0 0 1-2.361-.97 3.235 3.235 0 0 1-.927-2.336 2.987 2.987 0 0 1 .926-2.248 3.219 3.219 0 0 1 2.363-.923 3.453 3.453 0 0 1 2.929 1.509l.415.559 2.4-1.566-.38-.648a5.625 5.625 0 0 0-2.242-2.156 6.432 6.432 0 0 0-3.065-.756 6.107 6.107 0 0 0-4.588 1.86 6.24 6.24 0 0 0-1.792 4.456 6.1 6.1 0 0 0 1.782 4.426 5.966 5.966 0 0 0 4.408 1.808zM5.81 6.609H.017V22.63h3.147v-6.937H5.81a4.542 4.542 0 1 0 0-9.083zm-.072 6.032H3.163V9.697h2.575a1.472 1.472 0 0 1 0 2.944z"/></svg>