<svg xmlns="http://www.w3.org/2000/svg" width="328.419" height="282.387"><defs><style>.c{fill:#fff}.c,.f{stroke:#000}.c{stroke-width:2.4px}.f,.h{fill:none}.f{stroke-linecap:round;stroke-linejoin:round;stroke-width:2px}.g{stroke:none}</style></defs><g transform="translate(1.43)"><path d="M81.615 0c4.348 0 3.759 8.289-.309 8.279H0V.732L81.617.007" style="stroke-miterlimit:10;stroke-width:2.2px;stroke:#000;fill:#fff" transform="rotate(-90 126.77 -35.146)"/><g transform="rotate(90 79.532 211.318)" style="stroke-width:2.5px;stroke:#000"><rect class="g" width="145.17" height="239.979" rx="24"/><rect class="h" x="1.25" y="1.25" width="142.67" height="237.479" rx="22.75"/></g><g class="c" transform="translate(46.925 128.609)"><rect class="g" width="240.516" height="143.999" rx="25"/><rect class="h" x="1.2" y="1.2" width="238.116" height="141.599" rx="23.8"/></g><g class="c" transform="translate(66.404 149.236)"><rect class="g" width="200.716" height="107.032" rx="12"/><rect class="h" x="1.2" y="1.2" width="198.316" height="104.632" rx="10.8"/></g><path d="m3054.687 5969.652 45.588-36.609 45.588 36.609" transform="translate(-2933.892 -5839.318)" style="fill:none;stroke-width:2.4px;stroke:#000"/><g class="c" transform="translate(153.935 80.826)"><rect class="g" width="23.853" height="24.012" rx="11.927"/><rect class="h" x="1.2" y="1.2" width="21.453" height="21.612" rx="10.727"/></g><g><path d="M242.203 204.306a8.766 8.766 0 0 0-2.727-6.387 7.3 7.3 0 0 1-2.123-6.574 9.36 9.36 0 0 0-.068-3.446 8.4 8.4 0 0 0-1.482-3.31 8.838 8.838 0 0 0-5.95-3.556 7.284 7.284 0 0 1-5.575-4.056 8.837 8.837 0 0 0-11.8-4.107 7.42 7.42 0 0 0-.344.176 7.959 7.959 0 0 0 1.419 14.617 17.334 17.334 0 0 1 0 33.271 7.9 7.9 0 0 0-5.614 7.6 7.955 7.955 0 0 0 4.211 7.03 8.837 8.837 0 0 0 11.962-3.615c.056-.108.113-.216.166-.326a7.286 7.286 0 0 1 5.59-4.056 8.842 8.842 0 0 0 7.546-9.971c-.016-.12-.036-.239-.056-.357a7.3 7.3 0 0 1 2.144-6.562 8.771 8.771 0 0 0 2.701-6.371zm-22.628 0a9.434 9.434 0 1 0-9.434 9.436 9.434 9.434 0 0 0 9.434-9.436zM121.483 200.144a7.325 7.325 0 0 0 5.468-2.3 7.929 7.929 0 0 0-.025-11 7.6 7.6 0 0 0-10.909 0 7.918 7.918 0 0 0-.015 11 7.374 7.374 0 0 0 5.481 2.3zm-2.641-10.584a3.472 3.472 0 0 1 2.63-1.179 3.513 3.513 0 0 1 2.646 1.184 3.957 3.957 0 0 1 1.144 2.845 3.835 3.835 0 0 1-1.116 2.791 3.73 3.73 0 0 1-5.354.016 3.869 3.869 0 0 1-1.086-2.8 3.993 3.993 0 0 1 1.136-2.857zM138.657 200.144a6.661 6.661 0 0 0 3.908-1.329v.9h3.846V180.01h-3.846v5.634a6.775 6.775 0 0 0-3.79-1.105 7.427 7.427 0 0 0-5.486 2.292 7.59 7.59 0 0 0-2.245 5.5 7.683 7.683 0 0 0 2.212 5.5 7.259 7.259 0 0 0 5.401 2.313zm-2.591-10.606a3.85 3.85 0 0 1 5.5-.043 4.038 4.038 0 0 1 1.1 2.917 3.935 3.935 0 0 1-3.855 3.976 3.592 3.592 0 0 1-2.716-1.2 4.078 4.078 0 0 1-.03-5.658zM152.036 199.267a5.807 5.807 0 0 0 6.637-.356v.9h3.9V184.97h-4v8.386a2.645 2.645 0 0 1-5.289 0v-8.386h-3.97v7.6a10.619 10.619 0 0 0 .667 4.282 5.293 5.293 0 0 0 2.055 2.415zM90.108 228.589h3.966v-8.773h6.826v-3.944h-6.826v-3.05h6.826v-3.944H90.108zM114.434 214.091a6.771 6.771 0 0 0-3.788-1.108 7.435 7.435 0 0 0-5.488 2.292 7.584 7.584 0 0 0-2.245 5.489 7.686 7.686 0 0 0 2.227 5.5 7.261 7.261 0 0 0 5.4 2.32 7.012 7.012 0 0 0 3.895-1.248v.822h3.848v-14.842h-3.848zm-1.046 9.6a3.66 3.66 0 0 1-2.708 1.139 3.608 3.608 0 0 1-2.719-1.184 4.078 4.078 0 0 1-.016-5.665 3.571 3.571 0 0 1 2.723-1.178 3.645 3.645 0 0 1 2.736 1.141 3.93 3.93 0 0 1 1.124 2.885 3.835 3.835 0 0 1-1.139 2.867zM132.239 222.915a4.5 4.5 0 0 1-3.68 1.92 3.839 3.839 0 0 1-2.935-1.206 4.018 4.018 0 0 1-1.153-2.9 3.722 3.722 0 0 1 1.15-2.794 4 4 0 0 1 2.938-1.147 4.289 4.289 0 0 1 3.639 1.876l.517.7 2.982-1.948-.473-.806a7 7 0 0 0-2.787-2.679 7.98 7.98 0 0 0-3.811-.941 7.588 7.588 0 0 0-5.7 2.311 7.754 7.754 0 0 0-2.221 5.551 7.571 7.571 0 0 0 2.215 5.5 7.411 7.411 0 0 0 5.477 2.243 8.628 8.628 0 0 0 3.849-.876 7.406 7.406 0 0 0 2.95-2.6l.523-.794-2.939-2.09zM155.727 212.983a7.361 7.361 0 0 0-5.467 2.308 7.918 7.918 0 0 0-.015 11 7.671 7.671 0 0 0 10.949 0 7.928 7.928 0 0 0-.025-11 7.327 7.327 0 0 0-5.442-2.308zm2.661 10.664a3.73 3.73 0 0 1-5.354.019 3.877 3.877 0 0 1-1.084-2.8 3.984 3.984 0 0 1 1.135-2.858 3.471 3.471 0 0 1 2.631-1.178 3.513 3.513 0 0 1 2.645 1.179 3.962 3.962 0 0 1 1.144 2.845 3.828 3.828 0 0 1-1.118 2.793zM108.621 190.998a1.872 1.872 0 0 1 1.868-1.871h2.259v-3.852h-2.259a5.73 5.73 0 0 0-5.723 5.723v9.15h3.855zM165.891 219.443v9.15h3.853v-9.15a1.872 1.872 0 0 1 1.87-1.87h2.259v-3.853h-2.259a5.73 5.73 0 0 0-5.723 5.723zM183.503 221.351l-3.608-8.034h-4.141l5.694 12.829-.781 1.739a2.663 2.663 0 0 1-2.393 1.5h-1.889v3.779h1.889a6.1 6.1 0 0 0 5.8-3.615l6.246-14.235.059-.222.775-1.775h-4.168zM189.791 196.29a1.871 1.871 0 0 1-1.87-1.87v-2.511h.021v-3.4h2.56v-3.631h-2.56v-4.861h-3.893v4.861h-2.23v3.631h2.23v3.91h.018v2a5.731 5.731 0 0 0 5.725 5.723h1.363v-3.852zM143.753 222.865v-2.511h.021v-3.4h2.562v-3.633h-2.562v-4.71h-3.894v4.71h-2.23v3.633h2.23v3.908h.019v2a5.73 5.73 0 0 0 5.723 5.723h1.363v-3.852h-1.363a1.873 1.873 0 0 1-1.869-1.868zM172.964 200.144a8.632 8.632 0 0 0 3.849-.876 7.4 7.4 0 0 0 2.948-2.6l.523-.794-2.939-2.09-.541.689a4.5 4.5 0 0 1-3.68 1.92 3.841 3.841 0 0 1-2.935-1.206 4.02 4.02 0 0 1-1.153-2.9 3.713 3.713 0 0 1 1.151-2.794 4 4 0 0 1 2.936-1.147 4.292 4.292 0 0 1 3.64 1.876l.516.695 2.982-1.947-.473-.806a6.991 6.991 0 0 0-2.787-2.68 8 8 0 0 0-3.809-.939 7.59 7.59 0 0 0-5.7 2.311 7.756 7.756 0 0 0-2.221 5.55 7.583 7.583 0 0 0 2.215 5.5 7.415 7.415 0 0 0 5.478 2.238zM97.329 180.2h-7.2v19.912h3.911v-8.623h3.289a5.645 5.645 0 1 0 0-11.289zm-.089 7.5h-3.2v-3.659h3.2a1.83 1.83 0 0 1 0 3.659z"/></g><path transform="translate(156.607)" style="fill:#fff" d="M0 0h20v27H0z"/><path class="f" d="m212.937 56.899 2.183-2.15a3.257 3.257 0 0 1 4.584.012l2.266 2.259a3.259 3.259 0 0 0 4.581.017l2.163-2.117a3.257 3.257 0 0 1 4.612.05l2.156 2.208a3.258 3.258 0 0 0 4.617.044l2.202-2.167a3.259 3.259 0 0 1 4.544-.03M15.1 271.505l-2.4-1.904a3.256 3.256 0 0 1-.545-4.55l1.968-2.527a3.256 3.256 0 0 0-.542-4.546l-2.368-1.886a3.256 3.256 0 0 1-.512-4.583l1.93-2.407a3.257 3.257 0 0 0-.518-4.59"/><circle class="f" cx="4.675" cy="4.675" transform="translate(83.639 73.037)" r="4.675"/><circle class="f" cx="4.675" cy="4.675" transform="translate(316.639 272.037)" r="4.675"/></g></svg>