<svg xmlns="http://www.w3.org/2000/svg" width="774.736" height="666.992"><defs><linearGradient id="a" x1=".5" y1=".925" x2=".5" gradientUnits="objectBoundingBox"><stop offset="0" stop-color="#fff"/><stop offset="1" stop-color="#fff" stop-opacity="0"/></linearGradient></defs><path d="M752.652.117C506.259-.028 256.339.026 9.9.258 7.246-.117 3.325.726 1.323 3.045A5.446 5.446 0 0 0 .19 8.1a5.042 5.042 0 0 0 1.133 4.069c2.49 2.915 7.854 2.92 8.9 2.892 15.513.179 31.343.066 46.654-.049l1.2-.008a71.607 71.607 0 0 0-2.488 14.362c-.136 74.079-.082 149.3-.031 222.039q.061 88.771.028 177.527c.031 3.053-.013 6.093-.051 9.132a181.614 181.614 0 0 0 .46 19.877l.049.493.343.355a34.149 34.149 0 0 0 8.743 6.552q13.579 7.782 27.225 15.654c16.648 9.587 33.867 19.5 50.878 29.132 3.628 1.52 3.9 5.04 3.914 10.246 0 1.379.008 2.682.13 3.908-.263 14.012-.2 28.422-.138 42.362.054 11.787.107 23.977-.033 35.965-.665 11.73-1.421 25.1 4.055 37.087l.741-.337-.739.347a47.423 47.423 0 0 0 42.285 27.167q75.983.1 151.946.046 86.383-.031 172.777.074h.591l.417-.416q56.057-56.228 112.2-112.33l.4-.4.018-.565c.184-6.391.184-12.877.187-19.154 0-7.183 0-14.609.281-21.9q16.616-9.491 33.164-19.138c18.282-10.6 37.188-21.563 55.965-31.983l.624-.345.095-.708a184.545 184.545 0 0 0 1.49-31.229q-.069-129.491 0-259.067c.253-21.282-.054-42.924-.355-63.853-.317-21.974-.642-44.691-.314-67.028a66.846 66.846 0 0 0-2.36-23.9q5.319.031 10.64.092c11.76.117 23.924.24 35.889-.2a6.893 6.893 0 0 0 7.25-5.063A7.424 7.424 0 0 0 771.11.991l-.527-.174A103.547 103.547 0 0 0 757.57 0c-1.641 0-3.282.036-4.918.117zM95.427 25.535c-3.871-3.352-7.849-6.8-11.673-10.338 202.376-.189 407.959-.151 611.168.095q-14.756 13.17-29.551 26.3a160223.007 160223.007 0 0 1-197.77 173.971c-2.894 2.526-5.888 5.155-9.654 4.493l-34.516-.005c-35.247.026-71.688.043-107.528-.1-33.417-29.8-67.628-59.8-100.72-88.818-33.4-29.285-67.935-59.572-101.641-89.636l-.455-.406-.516.043c-5.471-5.496-11.402-10.628-17.144-15.599zM70.5 258.7c.043-68.408.092-139.132-.171-208.72l.514-.3-.041-.853a226.1 226.1 0 0 1 .13-24.092c4.469 3.615 8.807 7.485 13.018 11.248q2.987 2.667 5.993 5.306c24.735 21.312 49.633 43.261 73.71 64.484q19.224 16.952 38.491 33.86c13.414 11.958 27.184 23.979 40.5 35.613 19.808 17.3 40.276 35.176 60.012 53.211-34.91 31.27-70.154 63.283-104.246 94.252-41.764 37.94-84.926 77.147-127.835 115.311-.154-59.812-.113-120.546-.075-179.32zm405.568-30.414A42453.177 42453.177 0 0 1 688.881 40.975c2.114-1.8 4.229-3.63 6.34-5.456 4.1-3.533 8.3-7.165 12.55-10.683.156 5.9.2 11.848.238 17.629l.059 7.423c-.187 60.466-.146 121.958-.1 181.427.049 67.756.1 137.783-.194 206.725Q591.9 333.183 476.069 228.285zm-20.836 6.547a12.246 12.246 0 0 1 9.743 3.571q30.046 27.106 59.857 54.233c30.135 27.371 61.291 55.663 92.168 83.251v8.834c.095 49.169.095 99.029 0 148.191-.02 3.382-.023 6.764-.01 10.164q-34.521-.069-69-.066a39.582 39.582 0 0 0-28.19 9.789c-6.115 5.405-8.884 13.013-11.561 20.375l-.522 1.425v.261c.2 19.7.151 39.723.11 59.091l-.036 18.03c-98.831-.069-199.027-.069-297.828 0-2.24-.049-4.563-.013-6.908.031-9.063.153-18.435.314-25.941-4.826l-.805 1.172.744-1.213a31.667 31.667 0 0 1-15.033-27.676q.031-49.744-.008-99.417-.027-67.911.031-135.832c.02-2.8.066-5.6.113-8.427q24.819-22.454 49.587-44.96c34.761-31.551 70.7-64.177 106.3-95.986q34.582-.038 69.147-.01 15.542 0 31.085.005 18.484.005 36.958-.011zM118.648 478.667c-13.954-8.052-28.362-16.369-42.664-24.421 8.866-8.218 18.111-16.27 27.069-24.069 14.419-12.556 29.3-25.515 42.945-39.475 1.406 12.6 1.314 25.456 1.222 37.922-.033 4.884-.066 9.766-.02 14.645-.046 6.136-.018 12.295.01 18.456.051 10.887.1 22.122-.3 33.2q-14.155-8.082-28.262-16.258zm513.335-26.848c.013-14.5.028-29.489-.133-44.234a111.055 111.055 0 0 1 1.4-16.012 125.423 125.423 0 0 0 12.105 11.409c2.536 2.189 5.162 4.45 7.606 6.787 9.05 8.844 18.773 17.266 28.173 25.407 7.133 6.177 14.491 12.553 21.526 19.085-9.089 5.3-18.233 10.5-27.375 15.71-14.222 8.1-28.9 16.461-43.18 25.057-.153-14.42-.138-29.044-.122-43.209zM522.659 615.988c.02-8.279.046-16.839-.074-25.259v-2.613c-.015-6.936-.028-14.111 3.554-20.012a23.845 23.845 0 0 1 21.508-10.428c8.925.064 17.753.064 26.586.066 10.643 0 21.613 0 32.466.112Q594.335 570.2 582 582.572c-19.374 19.407-39.384 39.45-59.258 59.061-.129-8.573-.106-17.233-.083-25.645zm-294.78-271.145a8.516 8.516 0 1 0 0 17.031h298.265a8.516 8.516 0 1 0 0-17.031zm198.843 73.8a8.516 8.516 0 1 0 0 17.031h144.872a8.516 8.516 0 1 0 0-17.031zm-198.843 0a8.516 8.516 0 1 0 0 17.031h156.233a8.516 8.516 0 1 0 0-17.031zm247.134 73.8a8.516 8.516 0 1 0 0 17.031h96.581a8.516 8.516 0 1 0 0-17.031zm-247.134 0a8.516 8.516 0 1 0 0 17.031h181.8a8.516 8.516 0 1 0 0-17.031zm0 73.8a8.514 8.514 0 1 0 0 17.029h142.032a8.514 8.514 0 1 0 0-17.029z" transform="rotate(180 387.368 333.496)" style="opacity:.2;fill:url(#a)"/></svg>