<svg xmlns="http://www.w3.org/2000/svg" width="549.878" height="126.131"><defs><linearGradient id="a" x1="3.06" y1=".977" x2="3.111" y2=".064" gradientUnits="objectBoundingBox"><stop offset="0" stop-color="#030504"/><stop offset="1" stop-color="#fff"/></linearGradient><style>.c{fill:url(#a)}</style></defs><g style="isolation:isolate;opacity:.04"><g style="isolation:isolate"><path class="c" d="M25.177 120.447A45.448 45.448 0 0 1 6.605 105.08 36.6 36.6 0 0 1 0 84.024V0h33.315v85.45a13.044 13.044 0 0 0 2.106 6.574 17.035 17.035 0 0 0 6.51 6.04 21.476 21.476 0 0 0 10.722 2.487 20.94 20.94 0 0 0 10.626-2.487 16.7 16.7 0 0 0 6.318-5.951 13.289 13.289 0 0 0 2.01-6.662V.001h33.7v84.023a36.6 36.6 0 0 1-6.606 21.052 45.47 45.47 0 0 1-18.572 15.367q-11.969 5.684-27.475 5.685t-27.477-5.681zM150.872 0v122.934h-32.166V0zM275.131 0l-46.334 122.934h-32.166L242.774 0zM346.832 120.447a45.448 45.448 0 0 1-18.572-15.367 36.6 36.6 0 0 1-6.606-21.056V0h33.315v85.45a13.044 13.044 0 0 0 2.106 6.574 17.027 17.027 0 0 0 6.51 6.04 21.48 21.48 0 0 0 10.723 2.487 20.939 20.939 0 0 0 10.625-2.487 16.717 16.717 0 0 0 6.319-5.951 13.287 13.287 0 0 0 2.009-6.662V.001h33.7v84.023a36.587 36.587 0 0 1-6.606 21.052 45.462 45.462 0 0 1-18.572 15.367q-11.967 5.684-27.474 5.685t-27.477-5.681zM435.191 0h35.229l22.212 38.724 22.4-38.728h34.846l-36.953 61.467 36.953 61.467h-34.655l-22.591-38.546-22.4 38.55h-35.041l37.335-61.467z"/></g></g></svg>