<svg xmlns="http://www.w3.org/2000/svg" width="28.111" height="28.111"><path d="M14.059 6.848a7.207 7.207 0 1 0 7.206 7.207 7.2 7.2 0 0 0-7.206-7.207zm0 11.893a4.686 4.686 0 1 1 4.685-4.686 4.694 4.694 0 0 1-4.685 4.686zM23.24 6.553a1.681 1.681 0 1 1-1.681-1.678 1.677 1.677 0 0 1 1.681 1.678zm4.772 1.706a8.32 8.32 0 0 0-2.27-5.89A8.371 8.371 0 0 0 19.853.098c-2.32-.132-9.275-.132-11.6 0a8.359 8.359 0 0 0-5.889 2.264 8.348 8.348 0 0 0-2.27 5.89c-.132 2.321-.132 9.277 0 11.6a8.32 8.32 0 0 0 2.27 5.89 8.382 8.382 0 0 0 5.889 2.271c2.32.132 9.275.132 11.6 0a8.316 8.316 0 0 0 5.889-2.271 8.375 8.375 0 0 0 2.27-5.89c.132-2.321.132-9.271.001-11.592zm-3 14.082a4.743 4.743 0 0 1-2.672 2.672c-1.85.734-6.24.565-8.284.565s-6.441.163-8.284-.565A4.743 4.743 0 0 1 3.1 22.341c-.734-1.85-.564-6.241-.564-8.286s-.163-6.442.564-8.286a4.743 4.743 0 0 1 2.675-2.672c1.85-.734 6.24-.565 8.284-.565s6.441-.163 8.284.565a4.743 4.743 0 0 1 2.672 2.672c.734 1.85.564 6.241.564 8.286s.17 6.443-.564 8.287z"/></svg>