<svg xmlns="http://www.w3.org/2000/svg" width="32.141" height="26.104"><path d="M28.837 6.506c.02.285.02.571.02.857 0 8.708-6.628 18.742-18.742 18.742A18.615 18.615 0 0 1 0 23.147a13.627 13.627 0 0 0 1.591.082 13.192 13.192 0 0 0 8.178-2.811 6.6 6.6 0 0 1-6.159-4.572 8.308 8.308 0 0 0 1.244.1 6.967 6.967 0 0 0 1.733-.224 6.588 6.588 0 0 1-5.282-6.465v-.082a6.634 6.634 0 0 0 2.977.836 6.6 6.6 0 0 1-2.039-8.81 18.724 18.724 0 0 0 13.582 6.893 7.436 7.436 0 0 1-.163-1.509 6.593 6.593 0 0 1 11.4-4.507A12.969 12.969 0 0 0 31.243.487a6.569 6.569 0 0 1-2.9 3.63 13.205 13.205 0 0 0 3.793-1.02 14.16 14.16 0 0 1-3.3 3.406z"/></svg>